<mxfile host="65bd71144e">
    <diagram id="2iBKjBLJWLR9v1AM_TlW" name="Page-1">
        <mxGraphModel dx="3858" dy="1731" grid="0" gridSize="10" guides="1" tooltips="1" connect="1" arrows="1" fold="1" page="0" pageScale="1" pageWidth="850" pageHeight="1100" math="0" shadow="0">
            <root>
                <mxCell id="0"/>
                <mxCell id="1" parent="0"/>
                <mxCell id="46" value="Mongo or MySQL" style="shape=cylinder3;whiteSpace=wrap;html=1;boundedLbl=1;backgroundOutline=1;size=15;fontStyle=1" parent="1" vertex="1">
                    <mxGeometry x="190" y="10" width="497" height="260" as="geometry"/>
                </mxCell>
                <mxCell id="94" style="edgeStyle=none;html=1;exitX=0.5;exitY=1;exitDx=0;exitDy=0;entryX=0.5;entryY=0;entryDx=0;entryDy=0;fontSize=12;fontColor=default;labelBorderColor=default;" parent="1" source="81" target="82" edge="1">
                    <mxGeometry relative="1" as="geometry"/>
                </mxCell>
                <mxCell id="96" style="edgeStyle=none;html=1;exitX=0.5;exitY=1;exitDx=0;exitDy=0;entryX=0.5;entryY=0;entryDx=0;entryDy=0;labelBorderColor=default;" parent="1" source="81" target="83" edge="1">
                    <mxGeometry relative="1" as="geometry"/>
                </mxCell>
                <mxCell id="258" value="driver is the owning side" style="edgeLabel;html=1;align=center;verticalAlign=middle;resizable=0;points=[];fontSize=12;" parent="96" vertex="1" connectable="0">
                    <mxGeometry x="0.1537" y="3" relative="1" as="geometry">
                        <mxPoint y="-1" as="offset"/>
                    </mxGeometry>
                </mxCell>
                <mxCell id="97" style="edgeStyle=none;html=1;exitX=0.5;exitY=1;exitDx=0;exitDy=0;entryX=0.5;entryY=0;entryDx=0;entryDy=0;labelBorderColor=default;" parent="1" source="81" target="84" edge="1">
                    <mxGeometry relative="1" as="geometry"/>
                </mxCell>
                <mxCell id="98" style="edgeStyle=none;html=1;exitX=0.5;exitY=1;exitDx=0;exitDy=0;entryX=0.5;entryY=0;entryDx=0;entryDy=0;labelBorderColor=default;" parent="1" source="81" target="85" edge="1">
                    <mxGeometry relative="1" as="geometry"/>
                </mxCell>
                <mxCell id="286" style="edgeStyle=none;html=1;exitX=0.5;exitY=1;exitDx=0;exitDy=0;entryX=0.5;entryY=0;entryDx=0;entryDy=0;fontSize=12;" parent="1" source="81" target="285" edge="1">
                    <mxGeometry relative="1" as="geometry"/>
                </mxCell>
                <mxCell id="81" value="&lt;font style=&quot;font-size: 20px;&quot;&gt;Table Relations&lt;/font&gt;" style="text;html=1;strokeColor=none;fillColor=none;align=center;verticalAlign=middle;whiteSpace=wrap;rounded=0;" parent="1" vertex="1">
                    <mxGeometry x="280" y="-860" width="160" height="30" as="geometry"/>
                </mxCell>
                <mxCell id="83" value="OneToMany" style="text;whiteSpace=wrap;fontSize=20;" parent="1" vertex="1">
                    <mxGeometry x="220" y="-696" width="120" height="30" as="geometry"/>
                </mxCell>
                <mxCell id="84" value="ManyToOne" style="text;whiteSpace=wrap;fontSize=20;" parent="1" vertex="1">
                    <mxGeometry x="513" y="-765" width="120" height="30" as="geometry"/>
                </mxCell>
                <mxCell id="85" value="ManyToMany" style="text;whiteSpace=wrap;fontSize=20;" parent="1" vertex="1">
                    <mxGeometry x="1553" y="-774" width="140" height="30" as="geometry"/>
                </mxCell>
                <mxCell id="168" value="" style="group" parent="1" vertex="1" connectable="0">
                    <mxGeometry x="-2030" y="-480" width="1180" height="300" as="geometry"/>
                </mxCell>
                <mxCell id="155" value="&lt;div style=&quot;color: rgb(204, 204, 204); background-color: rgb(36, 36, 36); font-family: &amp;quot;Anonymous Pro&amp;quot;, &amp;quot;Fira Code&amp;quot;, &amp;quot;Cascadia Code&amp;quot;, Consolas, &amp;quot;Courier New&amp;quot;, monospace, &amp;quot;Droid Sans Mono&amp;quot;, &amp;quot;monospace&amp;quot;, monospace; font-size: 16px; line-height: 22px;&quot;&gt;&lt;span style=&quot;color: #9e7bb0;&quot;&gt;fetch&lt;/span&gt;&lt;/div&gt;" style="text;strokeColor=none;fillColor=none;html=1;fontSize=24;fontStyle=1;verticalAlign=middle;align=center;" parent="168" vertex="1">
                    <mxGeometry y="140" width="100" height="40" as="geometry"/>
                </mxCell>
                <mxCell id="157" value="&lt;div style=&quot;color: rgb(204, 204, 204); background-color: rgb(36, 36, 36); font-family: &amp;quot;Anonymous Pro&amp;quot;, &amp;quot;Fira Code&amp;quot;, &amp;quot;Cascadia Code&amp;quot;, Consolas, &amp;quot;Courier New&amp;quot;, monospace, &amp;quot;Droid Sans Mono&amp;quot;, &amp;quot;monospace&amp;quot;, monospace; font-size: 16px; line-height: 22px;&quot;&gt;FetchType&lt;/div&gt;" style="text;strokeColor=none;fillColor=none;html=1;fontSize=24;fontStyle=1;verticalAlign=middle;align=center;" parent="168" vertex="1">
                    <mxGeometry x="200" y="140" width="140" height="40" as="geometry"/>
                </mxCell>
                <mxCell id="158" value="" style="edgeStyle=none;curved=1;html=1;strokeColor=default;startArrow=none;startFill=0;labelBorderColor=default;" parent="168" source="155" target="157" edge="1">
                    <mxGeometry relative="1" as="geometry"/>
                </mxCell>
                <mxCell id="159" value="&lt;div style=&quot;color: rgb(204, 204, 204); background-color: rgb(36, 36, 36); font-family: &amp;quot;Anonymous Pro&amp;quot;, &amp;quot;Fira Code&amp;quot;, &amp;quot;Cascadia Code&amp;quot;, Consolas, &amp;quot;Courier New&amp;quot;, monospace, &amp;quot;Droid Sans Mono&amp;quot;, &amp;quot;monospace&amp;quot;, monospace; font-size: 16px; line-height: 22px;&quot;&gt;&lt;span style=&quot;color: #9e7bb0;&quot;&gt;LAZY&lt;/span&gt;&lt;/div&gt;" style="text;strokeColor=none;fillColor=none;html=1;fontSize=24;fontStyle=1;verticalAlign=middle;align=center;" parent="168" vertex="1">
                    <mxGeometry x="200" y="230" width="140" height="40" as="geometry"/>
                </mxCell>
                <mxCell id="160" value="" style="edgeStyle=none;curved=1;html=1;strokeColor=default;startArrow=none;startFill=0;labelBorderColor=default;" parent="168" source="157" target="159" edge="1">
                    <mxGeometry relative="1" as="geometry"/>
                </mxCell>
                <mxCell id="161" value="" style="edgeStyle=none;curved=1;html=1;strokeColor=default;startArrow=none;startFill=0;labelBorderColor=default;" parent="168" source="157" target="159" edge="1">
                    <mxGeometry relative="1" as="geometry"/>
                </mxCell>
                <mxCell id="162" value="&lt;div style=&quot;color: rgb(204, 204, 204); background-color: rgb(36, 36, 36); font-family: &amp;quot;Anonymous Pro&amp;quot;, &amp;quot;Fira Code&amp;quot;, &amp;quot;Cascadia Code&amp;quot;, Consolas, &amp;quot;Courier New&amp;quot;, monospace, &amp;quot;Droid Sans Mono&amp;quot;, &amp;quot;monospace&amp;quot;, monospace; font-size: 16px; line-height: 22px;&quot;&gt;&lt;div style=&quot;line-height: 22px;&quot;&gt;&lt;span style=&quot;color: #9e7bb0;&quot;&gt;EAGER&lt;/span&gt;&lt;/div&gt;&lt;/div&gt;" style="text;strokeColor=none;fillColor=none;html=1;fontSize=24;fontStyle=1;verticalAlign=middle;align=center;" parent="168" vertex="1">
                    <mxGeometry x="200" y="50" width="140" height="40" as="geometry"/>
                </mxCell>
                <mxCell id="163" value="" style="edgeStyle=none;curved=1;html=1;strokeColor=default;startArrow=none;startFill=0;labelBorderColor=default;" parent="168" source="157" target="162" edge="1">
                    <mxGeometry relative="1" as="geometry"/>
                </mxCell>
                <mxCell id="164" value="&lt;div style=&quot;background-color: rgb(36, 36, 36); line-height: 22px;&quot;&gt;&lt;div style=&quot;text-align: left; line-height: 22px;&quot;&gt;&lt;font face=&quot;Anonymous Pro, Fira Code, Cascadia Code, Consolas, Courier New, monospace, Droid Sans Mono, monospace, monospace&quot; color=&quot;#9e7bb0&quot;&gt;&lt;span style=&quot;font-size: 16px;&quot;&gt;EAGER - Associated entities will always be retrieved&lt;/span&gt;&lt;/font&gt;&lt;/div&gt;&lt;div style=&quot;text-align: left; line-height: 22px;&quot;&gt;&lt;font face=&quot;Anonymous Pro, Fira Code, Cascadia Code, Consolas, Courier New, monospace, Droid Sans Mono, monospace, monospace&quot; color=&quot;#9e7bb0&quot;&gt;&lt;span style=&quot;font-size: 16px;&quot;&gt;along with the main entity automatically in a single query.&amp;nbsp;&lt;/span&gt;&lt;/font&gt;&lt;/div&gt;&lt;div style=&quot;text-align: left; line-height: 22px;&quot;&gt;&lt;font face=&quot;Anonymous Pro, Fira Code, Cascadia Code, Consolas, Courier New, monospace, Droid Sans Mono, monospace, monospace&quot; color=&quot;#9e7bb0&quot;&gt;&lt;span style=&quot;font-size: 16px;&quot;&gt;This avoids the need for lazy loading but can be inefficient&amp;nbsp;&lt;/span&gt;&lt;/font&gt;&lt;/div&gt;&lt;div style=&quot;text-align: left; line-height: 22px;&quot;&gt;&lt;font face=&quot;Anonymous Pro, Fira Code, Cascadia Code, Consolas, Courier New, monospace, Droid Sans Mono, monospace, monospace&quot; color=&quot;#9e7bb0&quot;&gt;&lt;span style=&quot;font-size: 16px;&quot;&gt;if you don't need the associated data&lt;/span&gt;&lt;/font&gt;&lt;br&gt;&lt;/div&gt;&lt;/div&gt;" style="text;strokeColor=none;fillColor=none;html=1;fontSize=24;fontStyle=1;verticalAlign=middle;align=center;" parent="168" vertex="1">
                    <mxGeometry x="420" width="540" height="140" as="geometry"/>
                </mxCell>
                <mxCell id="165" value="" style="edgeStyle=none;curved=1;html=1;strokeColor=default;startArrow=none;startFill=0;labelBorderColor=default;" parent="168" source="162" target="164" edge="1">
                    <mxGeometry relative="1" as="geometry"/>
                </mxCell>
                <mxCell id="166" value="&lt;div style=&quot;background-color: rgb(36, 36, 36); line-height: 22px;&quot;&gt;&lt;font face=&quot;Anonymous Pro, Fira Code, Cascadia Code, Consolas, Courier New, monospace, Droid Sans Mono, monospace, monospace&quot; color=&quot;#9e7bb0&quot;&gt;&lt;span style=&quot;font-size: 16px;&quot;&gt;LAZY - Associated entities are not retrieved automatically when&lt;/span&gt;&lt;/font&gt;&lt;/div&gt;&lt;div style=&quot;background-color: rgb(36, 36, 36); line-height: 22px;&quot;&gt;&lt;span style=&quot;font-size: 16px; color: rgb(158, 123, 176); font-family: &amp;quot;Anonymous Pro&amp;quot;, &amp;quot;Fira Code&amp;quot;, &amp;quot;Cascadia Code&amp;quot;, Consolas, &amp;quot;Courier New&amp;quot;, monospace, &amp;quot;Droid Sans Mono&amp;quot;, monospace, monospace;&quot;&gt;loading the main entity.&lt;/span&gt;&lt;/div&gt;&lt;div style=&quot;background-color: rgb(36, 36, 36); line-height: 22px;&quot;&gt;&lt;font face=&quot;Anonymous Pro, Fira Code, Cascadia Code, Consolas, Courier New, monospace, Droid Sans Mono, monospace, monospace&quot; color=&quot;#9e7bb0&quot;&gt;&lt;span style=&quot;font-size: 16px;&quot;&gt;They will only be retrieved later on when accessing them, via lazy loading.&lt;/span&gt;&lt;/font&gt;&lt;/div&gt;&lt;div style=&quot;background-color: rgb(36, 36, 36); line-height: 22px;&quot;&gt;&lt;font face=&quot;Anonymous Pro, Fira Code, Cascadia Code, Consolas, Courier New, monospace, Droid Sans Mono, monospace, monospace&quot; color=&quot;#9e7bb0&quot;&gt;&lt;span style=&quot;font-size: 16px;&quot;&gt;This avoids unnecessary queries but requires extra queries for lazy loading.&lt;/span&gt;&lt;/font&gt;&lt;br&gt;&lt;/div&gt;" style="text;strokeColor=none;fillColor=none;html=1;fontSize=24;fontStyle=1;verticalAlign=middle;align=left;fontFamily=Tahoma;" parent="168" vertex="1">
                    <mxGeometry x="420" y="190" width="760" height="110" as="geometry"/>
                </mxCell>
                <mxCell id="167" value="" style="edgeStyle=none;curved=1;html=1;strokeColor=default;fontFamily=Tahoma;startArrow=none;startFill=0;labelBorderColor=default;" parent="168" source="159" target="166" edge="1">
                    <mxGeometry relative="1" as="geometry"/>
                </mxCell>
                <mxCell id="187" value="&lt;div style=&quot;background-color: rgb(36, 36, 36); line-height: 22px;&quot;&gt;&lt;div style=&quot;line-height: 22px;&quot;&gt;&lt;font face=&quot;Anonymous Pro, Fira Code, Cascadia Code, Consolas, Courier New, monospace, Droid Sans Mono, monospace, monospace&quot; color=&quot;#9e7bb0&quot;&gt;&lt;span style=&quot;font-size: 16px;&quot;&gt;CascadeType.ALL - Cascades all operations (persist, merge, remove, refresh).&amp;nbsp;&lt;/span&gt;&lt;/font&gt;&lt;/div&gt;&lt;div style=&quot;line-height: 22px;&quot;&gt;&lt;font face=&quot;Anonymous Pro, Fira Code, Cascadia Code, Consolas, Courier New, monospace, Droid Sans Mono, monospace, monospace&quot; color=&quot;#9e7bb0&quot;&gt;&lt;span style=&quot;font-size: 16px;&quot;&gt;This is the default if no cascade type is specified.&lt;/span&gt;&lt;/font&gt;&lt;br&gt;&lt;/div&gt;&lt;/div&gt;" style="text;strokeColor=none;fillColor=none;html=1;fontSize=24;fontStyle=1;verticalAlign=middle;align=left;fontFamily=Tahoma;" parent="1" vertex="1">
                    <mxGeometry x="-1607" y="-138" width="675" height="78" as="geometry"/>
                </mxCell>
                <mxCell id="188" value="" style="edgeStyle=none;curved=1;html=1;strokeColor=default;fontFamily=Tahoma;startArrow=none;startFill=0;entryX=0;entryY=0.5;entryDx=0;entryDy=0;labelBorderColor=default;" parent="1" source="173" target="187" edge="1">
                    <mxGeometry relative="1" as="geometry"/>
                </mxCell>
                <mxCell id="171" value="&lt;div style=&quot;color: rgb(204, 204, 204); background-color: rgb(36, 36, 36); font-family: &amp;quot;Anonymous Pro&amp;quot;, &amp;quot;Fira Code&amp;quot;, &amp;quot;Cascadia Code&amp;quot;, Consolas, &amp;quot;Courier New&amp;quot;, monospace, &amp;quot;Droid Sans Mono&amp;quot;, &amp;quot;monospace&amp;quot;, monospace; font-size: 16px; line-height: 22px;&quot;&gt;&lt;div style=&quot;line-height: 22px;&quot;&gt;CascadeType&lt;/div&gt;&lt;/div&gt;" style="text;strokeColor=none;fillColor=none;html=1;fontSize=24;fontStyle=1;verticalAlign=middle;align=center;" parent="1" vertex="1">
                    <mxGeometry x="-1928" y="152" width="140" height="40" as="geometry"/>
                </mxCell>
                <mxCell id="172" value="&lt;div style=&quot;color: rgb(204, 204, 204); background-color: rgb(36, 36, 36); font-family: &amp;quot;Anonymous Pro&amp;quot;, &amp;quot;Fira Code&amp;quot;, &amp;quot;Cascadia Code&amp;quot;, Consolas, &amp;quot;Courier New&amp;quot;, monospace, &amp;quot;Droid Sans Mono&amp;quot;, &amp;quot;monospace&amp;quot;, monospace; font-size: 16px; line-height: 22px;&quot;&gt;&lt;div style=&quot;line-height: 22px;&quot;&gt;&lt;span style=&quot;color: #9e7bb0;&quot;&gt;MERGE&lt;/span&gt;&lt;/div&gt;&lt;/div&gt;" style="text;strokeColor=none;fillColor=none;html=1;fontSize=24;fontStyle=1;verticalAlign=middle;align=center;" parent="1" vertex="1">
                    <mxGeometry x="-1709" y="76" width="50" height="40" as="geometry"/>
                </mxCell>
                <mxCell id="182" style="edgeStyle=none;curved=1;html=1;exitX=1;exitY=0.5;exitDx=0;exitDy=0;entryX=0;entryY=0.5;entryDx=0;entryDy=0;strokeColor=default;fontFamily=Tahoma;startArrow=none;startFill=0;labelBorderColor=default;" parent="1" source="171" target="172" edge="1">
                    <mxGeometry relative="1" as="geometry"/>
                </mxCell>
                <mxCell id="173" value="&lt;div style=&quot;color: rgb(204, 204, 204); background-color: rgb(36, 36, 36); font-family: &amp;quot;Anonymous Pro&amp;quot;, &amp;quot;Fira Code&amp;quot;, &amp;quot;Cascadia Code&amp;quot;, Consolas, &amp;quot;Courier New&amp;quot;, monospace, &amp;quot;Droid Sans Mono&amp;quot;, &amp;quot;monospace&amp;quot;, monospace; font-size: 16px; line-height: 22px;&quot;&gt;&lt;div style=&quot;line-height: 22px;&quot;&gt;&lt;span style=&quot;color: #9e7bb0;&quot;&gt;ALL&lt;/span&gt;&lt;/div&gt;&lt;/div&gt;" style="text;strokeColor=none;fillColor=none;html=1;fontSize=24;fontStyle=1;verticalAlign=middle;align=center;" parent="1" vertex="1">
                    <mxGeometry x="-1730" y="-82" width="30" height="40" as="geometry"/>
                </mxCell>
                <mxCell id="180" style="edgeStyle=none;curved=1;html=1;exitX=1;exitY=0.5;exitDx=0;exitDy=0;entryX=0;entryY=0.5;entryDx=0;entryDy=0;strokeColor=default;fontFamily=Tahoma;startArrow=none;startFill=0;labelBorderColor=default;" parent="1" source="171" target="173" edge="1">
                    <mxGeometry relative="1" as="geometry"/>
                </mxCell>
                <mxCell id="174" value="&lt;div style=&quot;color: rgb(204, 204, 204); background-color: rgb(36, 36, 36); font-family: &amp;quot;Anonymous Pro&amp;quot;, &amp;quot;Fira Code&amp;quot;, &amp;quot;Cascadia Code&amp;quot;, Consolas, &amp;quot;Courier New&amp;quot;, monospace, &amp;quot;Droid Sans Mono&amp;quot;, &amp;quot;monospace&amp;quot;, monospace; font-weight: bold; font-size: 16px; line-height: 22px;&quot;&gt;&lt;div&gt;&lt;span style=&quot;color: #9e7bb0;&quot;&gt;DETACH&lt;/span&gt;&lt;/div&gt;&lt;/div&gt;" style="text;strokeColor=none;fillColor=none;html=1;fontSize=24;fontStyle=1;verticalAlign=middle;align=center;fontFamily=Tahoma;" parent="1" vertex="1">
                    <mxGeometry x="-1728" y="-18" width="60" height="40" as="geometry"/>
                </mxCell>
                <mxCell id="181" style="edgeStyle=none;curved=1;html=1;exitX=1;exitY=0.5;exitDx=0;exitDy=0;entryX=0;entryY=0.5;entryDx=0;entryDy=0;strokeColor=default;fontFamily=Tahoma;startArrow=none;startFill=0;labelBorderColor=default;" parent="1" source="171" target="174" edge="1">
                    <mxGeometry relative="1" as="geometry"/>
                </mxCell>
                <mxCell id="176" value="&lt;div style=&quot;color: rgb(204, 204, 204); background-color: rgb(36, 36, 36); font-family: &amp;quot;Anonymous Pro&amp;quot;, &amp;quot;Fira Code&amp;quot;, &amp;quot;Cascadia Code&amp;quot;, Consolas, &amp;quot;Courier New&amp;quot;, monospace, &amp;quot;Droid Sans Mono&amp;quot;, &amp;quot;monospace&amp;quot;, monospace; font-size: 16px; line-height: 22px;&quot;&gt;&lt;div style=&quot;line-height: 22px;&quot;&gt;&lt;div style=&quot;line-height: 22px;&quot;&gt;&lt;span style=&quot;color: #9e7bb0;&quot;&gt;PERSIST&lt;/span&gt;&lt;/div&gt;&lt;/div&gt;&lt;/div&gt;" style="text;strokeColor=none;fillColor=none;html=1;fontSize=24;fontStyle=1;verticalAlign=middle;align=center;fontFamily=Tahoma;" parent="1" vertex="1">
                    <mxGeometry x="-1730" y="163" width="70" height="40" as="geometry"/>
                </mxCell>
                <mxCell id="183" style="edgeStyle=none;curved=1;html=1;exitX=1;exitY=0.5;exitDx=0;exitDy=0;entryX=0;entryY=0.5;entryDx=0;entryDy=0;strokeColor=default;fontFamily=Tahoma;startArrow=none;startFill=0;labelBorderColor=default;" parent="1" source="171" target="176" edge="1">
                    <mxGeometry relative="1" as="geometry"/>
                </mxCell>
                <mxCell id="178" value="&lt;div style=&quot;color: rgb(204, 204, 204); background-color: rgb(36, 36, 36); font-family: &amp;quot;Anonymous Pro&amp;quot;, &amp;quot;Fira Code&amp;quot;, &amp;quot;Cascadia Code&amp;quot;, Consolas, &amp;quot;Courier New&amp;quot;, monospace, &amp;quot;Droid Sans Mono&amp;quot;, &amp;quot;monospace&amp;quot;, monospace; font-size: 16px; line-height: 22px;&quot;&gt;&lt;div style=&quot;line-height: 22px;&quot;&gt;&lt;div style=&quot;line-height: 22px;&quot;&gt;&lt;div style=&quot;line-height: 22px;&quot;&gt;&lt;span style=&quot;color: #9e7bb0;&quot;&gt;REFRESH&lt;/span&gt;&lt;/div&gt;&lt;/div&gt;&lt;/div&gt;&lt;/div&gt;" style="text;strokeColor=none;fillColor=none;html=1;fontSize=24;fontStyle=1;verticalAlign=middle;align=center;fontFamily=Tahoma;" parent="1" vertex="1">
                    <mxGeometry x="-1728" y="237" width="70" height="40" as="geometry"/>
                </mxCell>
                <mxCell id="184" style="edgeStyle=none;curved=1;html=1;exitX=1;exitY=0.5;exitDx=0;exitDy=0;entryX=0;entryY=0.5;entryDx=0;entryDy=0;strokeColor=default;fontFamily=Tahoma;startArrow=none;startFill=0;labelBorderColor=default;" parent="1" source="171" target="178" edge="1">
                    <mxGeometry relative="1" as="geometry"/>
                </mxCell>
                <mxCell id="179" value="&lt;div style=&quot;color: rgb(204, 204, 204); background-color: rgb(36, 36, 36); font-family: &amp;quot;Anonymous Pro&amp;quot;, &amp;quot;Fira Code&amp;quot;, &amp;quot;Cascadia Code&amp;quot;, Consolas, &amp;quot;Courier New&amp;quot;, monospace, &amp;quot;Droid Sans Mono&amp;quot;, &amp;quot;monospace&amp;quot;, monospace; font-weight: bold; font-size: 16px; line-height: 22px;&quot;&gt;&lt;div&gt;&lt;span style=&quot;color: #9e7bb0;&quot;&gt;REMOVE&lt;/span&gt;&lt;/div&gt;&lt;/div&gt;" style="text;whiteSpace=wrap;html=1;fontFamily=Tahoma;" parent="1" vertex="1">
                    <mxGeometry x="-1714" y="338" width="60" height="30" as="geometry"/>
                </mxCell>
                <mxCell id="185" style="edgeStyle=none;curved=1;html=1;exitX=1;exitY=0.5;exitDx=0;exitDy=0;entryX=0;entryY=0.5;entryDx=0;entryDy=0;strokeColor=default;fontFamily=Tahoma;startArrow=none;startFill=0;labelBorderColor=default;" parent="1" source="171" target="179" edge="1">
                    <mxGeometry relative="1" as="geometry"/>
                </mxCell>
                <mxCell id="198" value="&lt;div style=&quot;background-color: rgb(36, 36, 36); line-height: 22px;&quot;&gt;&lt;div style=&quot;line-height: 22px;&quot;&gt;&lt;font face=&quot;Anonymous Pro, Fira Code, Cascadia Code, Consolas, Courier New, monospace, Droid Sans Mono, monospace, monospace&quot; color=&quot;#9e7bb0&quot;&gt;&lt;span style=&quot;font-size: 16px;&quot;&gt;CascadeType.PERSIST - Cascades the persist&lt;/span&gt;&lt;/font&gt;&lt;/div&gt;&lt;div style=&quot;line-height: 22px;&quot;&gt;&lt;font face=&quot;Anonymous Pro, Fira Code, Cascadia Code, Consolas, Courier New, monospace, Droid Sans Mono, monospace, monospace&quot; color=&quot;#9e7bb0&quot;&gt;&lt;span style=&quot;font-size: 16px;&quot;&gt;operation so child entities are persisted when the parent is persisted.&lt;/span&gt;&lt;/font&gt;&lt;br&gt;&lt;/div&gt;&lt;/div&gt;" style="text;strokeColor=none;fillColor=none;html=1;fontSize=24;fontStyle=1;verticalAlign=middle;align=left;fontFamily=Tahoma;" parent="1" vertex="1">
                    <mxGeometry x="-1611" y="144" width="630" height="78" as="geometry"/>
                </mxCell>
                <mxCell id="197" style="edgeStyle=none;curved=1;html=1;exitX=1;exitY=0.5;exitDx=0;exitDy=0;entryX=0;entryY=0.5;entryDx=0;entryDy=0;strokeColor=default;fontFamily=Tahoma;startArrow=none;startFill=0;labelBorderColor=default;" parent="1" source="176" target="198" edge="1">
                    <mxGeometry relative="1" as="geometry">
                        <mxPoint x="-1601" y="287" as="targetPoint"/>
                    </mxGeometry>
                </mxCell>
                <mxCell id="199" value="&lt;div style=&quot;background-color: rgb(36, 36, 36); line-height: 22px;&quot;&gt;&lt;div style=&quot;line-height: 22px;&quot;&gt;&lt;font face=&quot;Anonymous Pro, Fira Code, Cascadia Code, Consolas, Courier New, monospace, Droid Sans Mono, monospace, monospace&quot; color=&quot;#9e7bb0&quot;&gt;&lt;span style=&quot;font-size: 16px;&quot;&gt;CascadeType.MERGE - Cascades the merge operation so changes&lt;/span&gt;&lt;/font&gt;&lt;/div&gt;&lt;div style=&quot;line-height: 22px;&quot;&gt;&lt;font face=&quot;Anonymous Pro, Fira Code, Cascadia Code, Consolas, Courier New, monospace, Droid Sans Mono, monospace, monospace&quot; color=&quot;#9e7bb0&quot;&gt;&lt;span style=&quot;font-size: 16px;&quot;&gt;&amp;nbsp;to the parent entity are merged to child entities.&lt;/span&gt;&lt;/font&gt;&lt;br&gt;&lt;/div&gt;&lt;/div&gt;" style="text;strokeColor=none;fillColor=none;html=1;fontSize=24;fontStyle=1;verticalAlign=middle;align=left;fontFamily=Tahoma;" parent="1" vertex="1">
                    <mxGeometry x="-1607" y="57" width="515" height="78" as="geometry"/>
                </mxCell>
                <mxCell id="201" style="edgeStyle=none;curved=1;html=1;exitX=1;exitY=0.5;exitDx=0;exitDy=0;entryX=0;entryY=0.5;entryDx=0;entryDy=0;strokeColor=default;fontFamily=Tahoma;startArrow=none;startFill=0;labelBorderColor=default;" parent="1" source="172" target="199" edge="1">
                    <mxGeometry relative="1" as="geometry"/>
                </mxCell>
                <mxCell id="200" value="&lt;div style=&quot;background-color: rgb(36, 36, 36); line-height: 22px;&quot;&gt;&lt;div style=&quot;line-height: 22px;&quot;&gt;&lt;font face=&quot;Anonymous Pro, Fira Code, Cascadia Code, Consolas, Courier New, monospace, Droid Sans Mono, monospace, monospace&quot; color=&quot;#9e7bb0&quot;&gt;&lt;span style=&quot;font-size: 16px;&quot;&gt;CascadeType.REMOVE - Cascades the remove operation so&lt;/span&gt;&lt;/font&gt;&lt;/div&gt;&lt;div style=&quot;line-height: 22px;&quot;&gt;&lt;font face=&quot;Anonymous Pro, Fira Code, Cascadia Code, Consolas, Courier New, monospace, Droid Sans Mono, monospace, monospace&quot; color=&quot;#9e7bb0&quot;&gt;&lt;span style=&quot;font-size: 16px;&quot;&gt;child entities are removed when the parent is removed.&lt;/span&gt;&lt;/font&gt;&lt;br&gt;&lt;/div&gt;&lt;/div&gt;" style="text;strokeColor=none;fillColor=none;html=1;fontSize=24;fontStyle=1;verticalAlign=middle;align=left;fontFamily=Tahoma;" parent="1" vertex="1">
                    <mxGeometry x="-1611" y="314" width="481" height="78" as="geometry"/>
                </mxCell>
                <mxCell id="202" style="edgeStyle=none;curved=1;html=1;exitX=1;exitY=0.5;exitDx=0;exitDy=0;entryX=0;entryY=0.5;entryDx=0;entryDy=0;strokeColor=default;fontFamily=Tahoma;startArrow=none;startFill=0;labelBorderColor=default;" parent="1" source="179" target="200" edge="1">
                    <mxGeometry relative="1" as="geometry"/>
                </mxCell>
                <mxCell id="206" style="edgeStyle=none;curved=1;html=1;exitX=1;exitY=0.5;exitDx=0;exitDy=0;strokeColor=default;fontFamily=Tahoma;startArrow=none;startFill=0;entryX=0;entryY=0.5;entryDx=0;entryDy=0;labelBorderColor=default;" parent="1" source="178" target="205" edge="1">
                    <mxGeometry relative="1" as="geometry">
                        <mxPoint x="516.0000610351562" y="275.5000114440918" as="targetPoint"/>
                    </mxGeometry>
                </mxCell>
                <mxCell id="203" value="&lt;div style=&quot;background-color: rgb(36, 36, 36); line-height: 22px;&quot;&gt;&lt;div style=&quot;line-height: 22px;&quot;&gt;&lt;font face=&quot;Anonymous Pro, Fira Code, Cascadia Code, Consolas, Courier New, monospace, Droid Sans Mono, monospace, monospace&quot; color=&quot;#9e7bb0&quot;&gt;&lt;span style=&quot;font-size: 16px;&quot;&gt;CascadeType.DETACH specifies that the detach operation should be cascaded&lt;/span&gt;&lt;/font&gt;&lt;/div&gt;&lt;div style=&quot;line-height: 22px;&quot;&gt;&lt;font face=&quot;Anonymous Pro, Fira Code, Cascadia Code, Consolas, Courier New, monospace, Droid Sans Mono, monospace, monospace&quot; color=&quot;#9e7bb0&quot;&gt;&lt;span style=&quot;font-size: 16px;&quot;&gt;&amp;nbsp;from a parent entity to its child entities in a relationship.&lt;/span&gt;&lt;/font&gt;&lt;br&gt;&lt;/div&gt;&lt;/div&gt;" style="text;strokeColor=none;fillColor=none;html=1;fontSize=24;fontStyle=1;verticalAlign=middle;align=left;fontFamily=Tahoma;" parent="1" vertex="1">
                    <mxGeometry x="-1607" y="-37" width="647" height="78" as="geometry"/>
                </mxCell>
                <mxCell id="204" style="edgeStyle=none;curved=1;html=1;exitX=1;exitY=0.5;exitDx=0;exitDy=0;entryX=0;entryY=0.5;entryDx=0;entryDy=0;strokeColor=default;fontFamily=Tahoma;startArrow=none;startFill=0;labelBorderColor=default;" parent="1" source="174" target="203" edge="1">
                    <mxGeometry relative="1" as="geometry"/>
                </mxCell>
                <mxCell id="186" style="edgeStyle=none;curved=1;html=1;exitX=1;exitY=0.5;exitDx=0;exitDy=0;entryX=0;entryY=0.5;entryDx=0;entryDy=0;strokeColor=default;fontFamily=Tahoma;startArrow=none;startFill=0;labelBorderColor=default;" parent="1" source="170" target="171" edge="1">
                    <mxGeometry relative="1" as="geometry"/>
                </mxCell>
                <mxCell id="170" value="&lt;div style=&quot;color: rgb(204, 204, 204); background-color: rgb(36, 36, 36); font-family: &amp;quot;Anonymous Pro&amp;quot;, &amp;quot;Fira Code&amp;quot;, &amp;quot;Cascadia Code&amp;quot;, Consolas, &amp;quot;Courier New&amp;quot;, monospace, &amp;quot;Droid Sans Mono&amp;quot;, &amp;quot;monospace&amp;quot;, monospace; font-size: 16px; line-height: 22px;&quot;&gt;&lt;div style=&quot;line-height: 22px;&quot;&gt;&lt;span style=&quot;color: #9e7bb0;&quot;&gt;cascade&lt;/span&gt;&lt;/div&gt;&lt;/div&gt;" style="text;strokeColor=none;fillColor=none;html=1;fontSize=24;fontStyle=1;verticalAlign=middle;align=center;" parent="1" vertex="1">
                    <mxGeometry x="-2128" y="152" width="100" height="40" as="geometry"/>
                </mxCell>
                <mxCell id="205" value="&lt;div style=&quot;background-color: rgb(36, 36, 36); line-height: 22px;&quot;&gt;&lt;div style=&quot;line-height: 22px;&quot;&gt;&lt;font face=&quot;Anonymous Pro, Fira Code, Cascadia Code, Consolas, Courier New, monospace, Droid Sans Mono, monospace, monospace&quot; color=&quot;#9e7bb0&quot;&gt;&lt;span style=&quot;font-size: 16px;&quot;&gt;CascadeType.REFRESH specifies that the refresh operation should be&lt;/span&gt;&lt;/font&gt;&lt;/div&gt;&lt;div style=&quot;line-height: 22px;&quot;&gt;&lt;font face=&quot;Anonymous Pro, Fira Code, Cascadia Code, Consolas, Courier New, monospace, Droid Sans Mono, monospace, monospace&quot; color=&quot;#9e7bb0&quot;&gt;&lt;span style=&quot;font-size: 16px;&quot;&gt;&amp;nbsp;cascaded from a parent entity to its child entities.&lt;/span&gt;&lt;/font&gt;&lt;br&gt;&lt;/div&gt;&lt;/div&gt;" style="text;strokeColor=none;fillColor=none;html=1;fontSize=24;fontStyle=1;verticalAlign=middle;align=left;fontFamily=Tahoma;" parent="1" vertex="1">
                    <mxGeometry x="-1611" y="218" width="583" height="78" as="geometry"/>
                </mxCell>
                <mxCell id="213" value="Driver" style="swimlane;fontStyle=1;childLayout=stackLayout;horizontal=1;startSize=30;horizontalStack=0;resizeParent=1;resizeParentMax=0;resizeLast=0;collapsible=1;marginBottom=0;whiteSpace=wrap;html=1;" parent="1" vertex="1">
                    <mxGeometry x="80" y="-568" width="162" height="180" as="geometry"/>
                </mxCell>
                <mxCell id="214" value="&lt;span&gt;id :&lt;/span&gt; Long autogenerated" style="text;strokeColor=none;fillColor=none;align=left;verticalAlign=middle;spacingLeft=4;spacingRight=4;overflow=hidden;points=[[0,0.5],[1,0.5]];portConstraint=eastwest;rotatable=0;whiteSpace=wrap;html=1;fontStyle=1" parent="213" vertex="1">
                    <mxGeometry y="30" width="162" height="30" as="geometry"/>
                </mxCell>
                <mxCell id="215" value="&lt;span&gt;name :&lt;/span&gt; TEXT" style="text;strokeColor=none;fillColor=none;align=left;verticalAlign=middle;spacingLeft=4;spacingRight=4;overflow=hidden;points=[[0,0.5],[1,0.5]];portConstraint=eastwest;rotatable=0;whiteSpace=wrap;html=1;fontStyle=1" parent="213" vertex="1">
                    <mxGeometry y="60" width="162" height="30" as="geometry"/>
                </mxCell>
                <mxCell id="216" value="&lt;span&gt;age :&lt;/span&gt; INT" style="text;strokeColor=none;fillColor=none;align=left;verticalAlign=middle;spacingLeft=4;spacingRight=4;overflow=hidden;points=[[0,0.5],[1,0.5]];portConstraint=eastwest;rotatable=0;whiteSpace=wrap;html=1;fontStyle=1" parent="213" vertex="1">
                    <mxGeometry y="90" width="162" height="30" as="geometry"/>
                </mxCell>
                <mxCell id="217" value="&lt;span&gt;drivingExperience :&lt;/span&gt; INT" style="text;strokeColor=none;fillColor=none;align=left;verticalAlign=middle;spacingLeft=4;spacingRight=4;overflow=hidden;points=[[0,0.5],[1,0.5]];portConstraint=eastwest;rotatable=0;whiteSpace=wrap;html=1;fontStyle=1" parent="213" vertex="1">
                    <mxGeometry y="120" width="162" height="30" as="geometry"/>
                </mxCell>
                <mxCell id="229" value="List&amp;lt;Car&amp;gt; cars" style="text;strokeColor=none;fillColor=none;align=left;verticalAlign=middle;spacingLeft=4;spacingRight=4;overflow=hidden;points=[[0,0.5],[1,0.5]];portConstraint=eastwest;rotatable=0;whiteSpace=wrap;html=1;fontStyle=1" parent="213" vertex="1">
                    <mxGeometry y="150" width="162" height="30" as="geometry"/>
                </mxCell>
                <mxCell id="221" value="Car" style="swimlane;fontStyle=1;childLayout=stackLayout;horizontal=1;startSize=30;horizontalStack=0;resizeParent=1;resizeParentMax=0;resizeLast=0;collapsible=1;marginBottom=0;whiteSpace=wrap;html=1;" parent="1" vertex="1">
                    <mxGeometry x="476" y="-574" width="149" height="240" as="geometry">
                        <mxRectangle x="-620" y="-370" width="60" height="30" as="alternateBounds"/>
                    </mxGeometry>
                </mxCell>
                <mxCell id="222" value="id :&amp;nbsp;&lt;span style=&quot;&quot;&gt;Long autogenerated&lt;/span&gt;" style="text;strokeColor=none;fillColor=none;align=left;verticalAlign=middle;spacingLeft=4;spacingRight=4;overflow=hidden;points=[[0,0.5],[1,0.5]];portConstraint=eastwest;rotatable=0;whiteSpace=wrap;html=1;fontStyle=1" parent="221" vertex="1">
                    <mxGeometry y="30" width="149" height="30" as="geometry"/>
                </mxCell>
                <mxCell id="223" value="name : &lt;span style=&quot;&quot;&gt;TEXT&lt;/span&gt;" style="text;strokeColor=none;fillColor=none;align=left;verticalAlign=middle;spacingLeft=4;spacingRight=4;overflow=hidden;points=[[0,0.5],[1,0.5]];portConstraint=eastwest;rotatable=0;whiteSpace=wrap;html=1;fontStyle=1" parent="221" vertex="1">
                    <mxGeometry y="60" width="149" height="30" as="geometry"/>
                </mxCell>
                <mxCell id="224" value="color :&amp;nbsp;&lt;span style=&quot;&quot;&gt;TEXT&lt;/span&gt;" style="text;strokeColor=none;fillColor=none;align=left;verticalAlign=middle;spacingLeft=4;spacingRight=4;overflow=hidden;points=[[0,0.5],[1,0.5]];portConstraint=eastwest;rotatable=0;whiteSpace=wrap;html=1;fontStyle=1" parent="221" vertex="1">
                    <mxGeometry y="90" width="149" height="30" as="geometry"/>
                </mxCell>
                <mxCell id="225" value="year :&amp;nbsp;&lt;span style=&quot;&quot;&gt;INT&lt;/span&gt;" style="text;strokeColor=none;fillColor=none;align=left;verticalAlign=middle;spacingLeft=4;spacingRight=4;overflow=hidden;points=[[0,0.5],[1,0.5]];portConstraint=eastwest;rotatable=0;whiteSpace=wrap;html=1;fontStyle=1" parent="221" vertex="1">
                    <mxGeometry y="120" width="149" height="30" as="geometry"/>
                </mxCell>
                <mxCell id="226" value="number_of_seats :&amp;nbsp;&lt;span style=&quot;&quot;&gt;INT&lt;/span&gt;" style="text;strokeColor=none;fillColor=none;align=left;verticalAlign=middle;spacingLeft=4;spacingRight=4;overflow=hidden;points=[[0,0.5],[1,0.5]];portConstraint=eastwest;rotatable=0;whiteSpace=wrap;html=1;fontStyle=1" parent="221" vertex="1">
                    <mxGeometry y="150" width="149" height="30" as="geometry"/>
                </mxCell>
                <mxCell id="227" value="&lt;span&gt;vin :&lt;/span&gt; VIN reference id" style="text;strokeColor=none;fillColor=none;align=left;verticalAlign=middle;spacingLeft=4;spacingRight=4;overflow=hidden;points=[[0,0.5],[1,0.5]];portConstraint=eastwest;rotatable=0;whiteSpace=wrap;html=1;fontStyle=1" parent="221" vertex="1">
                    <mxGeometry y="180" width="149" height="30" as="geometry"/>
                </mxCell>
                <mxCell id="228" value="Driver driver : reference" style="text;strokeColor=none;fillColor=none;align=left;verticalAlign=middle;spacingLeft=4;spacingRight=4;overflow=hidden;points=[[0,0.5],[1,0.5]];portConstraint=eastwest;rotatable=0;whiteSpace=wrap;html=1;fontStyle=1" parent="221" vertex="1">
                    <mxGeometry y="210" width="149" height="30" as="geometry"/>
                </mxCell>
                <mxCell id="254" value="" style="group" parent="1" vertex="1" connectable="0">
                    <mxGeometry x="-1974" y="510" width="1019" height="183" as="geometry"/>
                </mxCell>
                <mxCell id="230" value="&lt;span style=&quot;font-size: 14px;&quot;&gt;Unidirectional and Bidirectional Relations&lt;/span&gt;" style="text;html=1;strokeColor=default;fillColor=none;align=center;verticalAlign=middle;whiteSpace=wrap;rounded=0;container=0;" parent="254" vertex="1">
                    <mxGeometry x="366" width="289" height="30" as="geometry"/>
                </mxCell>
                <mxCell id="232" value="&lt;font style=&quot;font-size: 14px;&quot;&gt;OneToOne&lt;/font&gt;" style="text;html=1;strokeColor=default;fillColor=none;align=center;verticalAlign=middle;whiteSpace=wrap;rounded=0;fontSize=14;container=0;" parent="254" vertex="1">
                    <mxGeometry x="464" y="153" width="89" height="30" as="geometry"/>
                </mxCell>
                <mxCell id="233" value="" style="edgeStyle=none;html=1;fontSize=14;labelBorderColor=default;" parent="254" source="230" target="232" edge="1">
                    <mxGeometry relative="1" as="geometry"/>
                </mxCell>
                <mxCell id="234" value="&lt;font style=&quot;font-size: 14px;&quot;&gt;Car&lt;/font&gt;" style="text;html=1;strokeColor=default;fillColor=none;align=center;verticalAlign=middle;whiteSpace=wrap;rounded=0;fontSize=14;container=0;" parent="254" vertex="1">
                    <mxGeometry x="372" y="153" width="66" height="30" as="geometry"/>
                </mxCell>
                <mxCell id="235" value="" style="edgeStyle=none;html=1;fontSize=14;labelBorderColor=default;" parent="254" source="232" target="234" edge="1">
                    <mxGeometry relative="1" as="geometry"/>
                </mxCell>
                <mxCell id="237" value="&lt;font style=&quot;font-size: 14px;&quot;&gt;Vin&lt;/font&gt;" style="text;html=1;strokeColor=default;fillColor=none;align=center;verticalAlign=middle;whiteSpace=wrap;rounded=0;fontSize=14;container=0;" parent="254" vertex="1">
                    <mxGeometry x="579" y="153" width="47" height="30" as="geometry"/>
                </mxCell>
                <mxCell id="238" value="" style="edgeStyle=none;html=1;fontSize=14;labelBorderColor=default;" parent="254" source="232" target="237" edge="1">
                    <mxGeometry relative="1" as="geometry"/>
                </mxCell>
                <mxCell id="239" value="&lt;font style=&quot;font-size: 14px;&quot;&gt;OneToMany/ManyToOne&lt;/font&gt;" style="text;html=1;strokeColor=default;fillColor=none;align=center;verticalAlign=middle;whiteSpace=wrap;rounded=0;container=0;" parent="254" vertex="1">
                    <mxGeometry x="657" y="86" width="289" height="30" as="geometry"/>
                </mxCell>
                <mxCell id="240" value="" style="edgeStyle=none;html=1;fontSize=14;labelBorderColor=default;entryX=0.5;entryY=0;entryDx=0;entryDy=0;" parent="254" source="230" target="239" edge="1">
                    <mxGeometry relative="1" as="geometry"/>
                </mxCell>
                <mxCell id="241" value="&lt;font style=&quot;font-size: 14px;&quot;&gt;Driver&lt;/font&gt;" style="text;html=1;strokeColor=default;fillColor=none;align=center;verticalAlign=middle;whiteSpace=wrap;rounded=0;container=0;" parent="254" vertex="1">
                    <mxGeometry x="581" y="86" width="45" height="30" as="geometry"/>
                </mxCell>
                <mxCell id="242" value="" style="edgeStyle=none;html=1;fontSize=14;labelBorderColor=default;" parent="254" source="239" target="241" edge="1">
                    <mxGeometry relative="1" as="geometry"/>
                </mxCell>
                <mxCell id="243" value="&lt;font style=&quot;font-size: 14px;&quot;&gt;Car&lt;/font&gt;" style="text;html=1;strokeColor=default;fillColor=none;align=center;verticalAlign=middle;whiteSpace=wrap;rounded=0;container=0;" parent="254" vertex="1">
                    <mxGeometry x="971" y="86" width="48" height="30" as="geometry"/>
                </mxCell>
                <mxCell id="244" value="" style="edgeStyle=none;html=1;fontSize=14;labelBorderColor=default;" parent="254" source="239" target="243" edge="1">
                    <mxGeometry relative="1" as="geometry"/>
                </mxCell>
                <mxCell id="245" value="&lt;font style=&quot;font-size: 14px;&quot;&gt;ManyToMany&lt;/font&gt;" style="text;html=1;strokeColor=default;fillColor=none;align=center;verticalAlign=middle;whiteSpace=wrap;rounded=0;container=0;" parent="254" vertex="1">
                    <mxGeometry x="139" y="86" width="98" height="30" as="geometry"/>
                </mxCell>
                <mxCell id="246" value="" style="edgeStyle=none;html=1;fontSize=14;labelBorderColor=default;entryX=0.5;entryY=0;entryDx=0;entryDy=0;" parent="254" source="230" target="245" edge="1">
                    <mxGeometry relative="1" as="geometry"/>
                </mxCell>
                <mxCell id="247" value="&lt;font style=&quot;font-size: 14px;&quot;&gt;Driver&lt;/font&gt;" style="text;html=1;strokeColor=default;fillColor=none;align=center;verticalAlign=middle;whiteSpace=wrap;rounded=0;container=0;" parent="254" vertex="1">
                    <mxGeometry y="86" width="98" height="30" as="geometry"/>
                </mxCell>
                <mxCell id="248" value="" style="edgeStyle=none;html=1;fontSize=14;labelBorderColor=default;" parent="254" source="245" target="247" edge="1">
                    <mxGeometry relative="1" as="geometry"/>
                </mxCell>
                <mxCell id="249" value="&lt;font style=&quot;font-size: 14px;&quot;&gt;Driver license categories&lt;/font&gt;" style="text;html=1;strokeColor=default;fillColor=none;align=center;verticalAlign=middle;whiteSpace=wrap;rounded=0;container=0;" parent="254" vertex="1">
                    <mxGeometry x="273" y="86" width="167" height="30" as="geometry"/>
                </mxCell>
                <mxCell id="250" value="" style="edgeStyle=none;html=1;fontSize=14;labelBorderColor=default;" parent="254" source="245" target="249" edge="1">
                    <mxGeometry relative="1" as="geometry"/>
                </mxCell>
                <mxCell id="82" value="OneToOne" style="text;strokeColor=none;fillColor=none;align=center;verticalAlign=middle;rounded=0;fontSize=20;fontColor=default;whiteSpace=wrap;" parent="1" vertex="1">
                    <mxGeometry x="-164" y="-746" width="110" height="30" as="geometry"/>
                </mxCell>
                <mxCell id="87" value="Car" style="text;html=1;strokeColor=none;fillColor=none;align=center;verticalAlign=middle;whiteSpace=wrap;rounded=0;fontSize=20;fontColor=default;labelBorderColor=none;labelBackgroundColor=default;" parent="1" vertex="1">
                    <mxGeometry x="-534" y="-636" width="60" height="30" as="geometry"/>
                </mxCell>
                <mxCell id="92" style="edgeStyle=none;html=1;exitX=0.5;exitY=1;exitDx=0;exitDy=0;entryX=0.5;entryY=0;entryDx=0;entryDy=0;fontSize=12;fontColor=default;labelBorderColor=default;" parent="1" source="82" target="87" edge="1">
                    <mxGeometry relative="1" as="geometry"/>
                </mxCell>
                <mxCell id="99" value="owning side is the Car as it has vin_id as reference" style="edgeLabel;html=1;align=center;verticalAlign=middle;resizable=0;points=[];" parent="92" vertex="1" connectable="0">
                    <mxGeometry x="0.1015" y="-2" relative="1" as="geometry">
                        <mxPoint y="1" as="offset"/>
                    </mxGeometry>
                </mxCell>
                <mxCell id="88" value="Vin" style="text;html=1;strokeColor=none;fillColor=none;align=center;verticalAlign=middle;whiteSpace=wrap;rounded=0;fontSize=20;fontColor=default;labelBorderColor=none;labelBackgroundColor=default;" parent="1" vertex="1">
                    <mxGeometry x="-124" y="-636" width="60" height="30" as="geometry"/>
                </mxCell>
                <mxCell id="93" style="edgeStyle=none;html=1;exitX=0.5;exitY=1;exitDx=0;exitDy=0;entryX=0.5;entryY=0;entryDx=0;entryDy=0;fontSize=12;fontColor=default;labelBorderColor=default;" parent="1" source="82" target="88" edge="1">
                    <mxGeometry relative="1" as="geometry"/>
                </mxCell>
                <mxCell id="129" value="Car" style="swimlane;fontStyle=1;childLayout=stackLayout;horizontal=1;startSize=30;horizontalStack=0;resizeParent=1;resizeParentMax=0;resizeLast=0;collapsible=1;marginBottom=0;whiteSpace=wrap;html=1;" parent="1" vertex="1">
                    <mxGeometry x="-694" y="-486" width="240" height="240" as="geometry">
                        <mxRectangle x="-620" y="-370" width="60" height="30" as="alternateBounds"/>
                    </mxGeometry>
                </mxCell>
                <mxCell id="130" value="id :&amp;nbsp;&lt;span style=&quot;&quot;&gt;Long autogenerated&lt;/span&gt;" style="text;strokeColor=none;fillColor=none;align=left;verticalAlign=middle;spacingLeft=4;spacingRight=4;overflow=hidden;points=[[0,0.5],[1,0.5]];portConstraint=eastwest;rotatable=0;whiteSpace=wrap;html=1;fontStyle=1" parent="129" vertex="1">
                    <mxGeometry y="30" width="240" height="30" as="geometry"/>
                </mxCell>
                <mxCell id="131" value="mode : &lt;span style=&quot;&quot;&gt;TEXT&lt;/span&gt;" style="text;strokeColor=none;fillColor=none;align=left;verticalAlign=middle;spacingLeft=4;spacingRight=4;overflow=hidden;points=[[0,0.5],[1,0.5]];portConstraint=eastwest;rotatable=0;whiteSpace=wrap;html=1;fontStyle=1" parent="129" vertex="1">
                    <mxGeometry y="60" width="240" height="30" as="geometry"/>
                </mxCell>
                <mxCell id="132" value="color :&amp;nbsp;&lt;span style=&quot;&quot;&gt;TEXT&lt;/span&gt;" style="text;strokeColor=none;fillColor=none;align=left;verticalAlign=middle;spacingLeft=4;spacingRight=4;overflow=hidden;points=[[0,0.5],[1,0.5]];portConstraint=eastwest;rotatable=0;whiteSpace=wrap;html=1;fontStyle=1" parent="129" vertex="1">
                    <mxGeometry y="90" width="240" height="30" as="geometry"/>
                </mxCell>
                <mxCell id="134" value="year :&amp;nbsp;&lt;span style=&quot;&quot;&gt;INT&lt;/span&gt;" style="text;strokeColor=none;fillColor=none;align=left;verticalAlign=middle;spacingLeft=4;spacingRight=4;overflow=hidden;points=[[0,0.5],[1,0.5]];portConstraint=eastwest;rotatable=0;whiteSpace=wrap;html=1;fontStyle=1" parent="129" vertex="1">
                    <mxGeometry y="120" width="240" height="30" as="geometry"/>
                </mxCell>
                <mxCell id="135" value="number_of_seats :&amp;nbsp;&lt;span style=&quot;&quot;&gt;INT&lt;/span&gt;" style="text;strokeColor=none;fillColor=none;align=left;verticalAlign=middle;spacingLeft=4;spacingRight=4;overflow=hidden;points=[[0,0.5],[1,0.5]];portConstraint=eastwest;rotatable=0;whiteSpace=wrap;html=1;fontStyle=1" parent="129" vertex="1">
                    <mxGeometry y="150" width="240" height="30" as="geometry"/>
                </mxCell>
                <mxCell id="137" value="&lt;span&gt;vin :&lt;/span&gt; reference of Vin id" style="text;strokeColor=none;fillColor=none;align=left;verticalAlign=middle;spacingLeft=4;spacingRight=4;overflow=hidden;points=[[0,0.5],[1,0.5]];portConstraint=eastwest;rotatable=0;whiteSpace=wrap;html=1;fontStyle=1" parent="129" vertex="1">
                    <mxGeometry y="180" width="240" height="30" as="geometry"/>
                </mxCell>
                <mxCell id="259" value="Driver driver" style="text;strokeColor=none;fillColor=none;align=left;verticalAlign=middle;spacingLeft=4;spacingRight=4;overflow=hidden;points=[[0,0.5],[1,0.5]];portConstraint=eastwest;rotatable=0;whiteSpace=wrap;html=1;fontStyle=1" parent="129" vertex="1">
                    <mxGeometry y="210" width="240" height="30" as="geometry"/>
                </mxCell>
                <mxCell id="142" value="Vin" style="swimlane;fontStyle=1;childLayout=stackLayout;horizontal=1;startSize=30;horizontalStack=0;resizeParent=1;resizeParentMax=0;resizeLast=0;collapsible=1;marginBottom=0;whiteSpace=wrap;html=1;" parent="1" vertex="1">
                    <mxGeometry x="-254" y="-486" width="240" height="120" as="geometry">
                        <mxRectangle x="-620" y="-370" width="60" height="30" as="alternateBounds"/>
                    </mxGeometry>
                </mxCell>
                <mxCell id="143" value="id :&amp;nbsp;&lt;span style=&quot;&quot;&gt;Long autogenerated&lt;/span&gt;" style="text;strokeColor=none;fillColor=none;align=left;verticalAlign=middle;spacingLeft=4;spacingRight=4;overflow=hidden;points=[[0,0.5],[1,0.5]];portConstraint=eastwest;rotatable=0;whiteSpace=wrap;html=1;fontStyle=1" parent="142" vertex="1">
                    <mxGeometry y="30" width="240" height="30" as="geometry"/>
                </mxCell>
                <mxCell id="144" value="vin : &lt;span style=&quot;&quot;&gt;TEXT&lt;/span&gt;" style="text;strokeColor=none;fillColor=none;align=left;verticalAlign=middle;spacingLeft=4;spacingRight=4;overflow=hidden;points=[[0,0.5],[1,0.5]];portConstraint=eastwest;rotatable=0;whiteSpace=wrap;html=1;fontStyle=1" parent="142" vertex="1">
                    <mxGeometry y="60" width="240" height="30" as="geometry"/>
                </mxCell>
                <mxCell id="148" value="&lt;span&gt;Car : &lt;/span&gt;mappedBy Vin in Car" style="text;strokeColor=none;fillColor=none;align=left;verticalAlign=middle;spacingLeft=4;spacingRight=4;overflow=hidden;points=[[0,0.5],[1,0.5]];portConstraint=eastwest;rotatable=0;whiteSpace=wrap;html=1;fontStyle=1" parent="142" vertex="1">
                    <mxGeometry y="90" width="240" height="30" as="geometry"/>
                </mxCell>
                <mxCell id="151" style="html=1;entryX=0;entryY=0.5;entryDx=0;entryDy=0;strokeColor=default;startArrow=classic;startFill=1;curved=1;labelBorderColor=default;" parent="1" target="148" edge="1">
                    <mxGeometry relative="1" as="geometry">
                        <mxPoint x="-264.0000000000002" y="-386" as="targetPoint"/>
                        <mxPoint x="-454" y="-291" as="sourcePoint"/>
                        <Array as="points">
                            <mxPoint x="-364" y="-266"/>
                            <mxPoint x="-324" y="-406"/>
                        </Array>
                    </mxGeometry>
                </mxCell>
                <mxCell id="152" value="bi-directional" style="edgeLabel;html=1;align=center;verticalAlign=middle;resizable=0;points=[];" parent="151" vertex="1" connectable="0">
                    <mxGeometry x="0.0976" relative="1" as="geometry">
                        <mxPoint as="offset"/>
                    </mxGeometry>
                </mxCell>
                <mxCell id="211" value="&lt;i&gt;One CAR has one VIN,&lt;br&gt;One VIN has one Car&lt;/i&gt;" style="text;html=1;strokeColor=none;fillColor=none;align=center;verticalAlign=middle;whiteSpace=wrap;rounded=0;fontFamily=Tahoma;" parent="1" vertex="1">
                    <mxGeometry x="-403" y="-458" width="130" height="70" as="geometry"/>
                </mxCell>
                <mxCell id="219" value="&lt;div style=&quot;border-color: rgb(0, 0, 0); color: rgb(204, 204, 204); font-family: &amp;quot;Anonymous Pro&amp;quot;, &amp;quot;Fira Code&amp;quot;, &amp;quot;Cascadia Code&amp;quot;, Consolas, &amp;quot;Courier New&amp;quot;, monospace, &amp;quot;Droid Sans Mono&amp;quot;, &amp;quot;monospace&amp;quot;, monospace; font-size: 12px; font-style: normal; font-variant-ligatures: normal; font-variant-caps: normal; font-weight: 700; letter-spacing: normal; orphans: 2; text-align: left; text-indent: 0px; text-transform: none; widows: 2; word-spacing: 0px; -webkit-text-stroke-width: 0px; background-color: rgb(36, 36, 36); text-decoration-thickness: initial; text-decoration-style: initial; text-decoration-color: initial;&quot;&gt;&lt;div style=&quot;line-height: 22px;&quot;&gt;&lt;div&gt; @&lt;span style=&quot;color: #cc8242;&quot;&gt;OneToOne&lt;/span&gt;(&lt;span style=&quot;color: #9e7bb0;&quot;&gt;cascade&lt;/span&gt; = CascadeType.&lt;span style=&quot;color: #9e7bb0;&quot;&gt;ALL&lt;/span&gt;)&lt;/div&gt;&lt;div&gt;  @&lt;span style=&quot;color: #cc8242;&quot;&gt;JoinColumn&lt;/span&gt;(&lt;span style=&quot;color: #9e7bb0;&quot;&gt;name&lt;/span&gt; = &lt;span style=&quot;color: #6a8759;&quot;&gt;&quot;vin_id&quot;&lt;/span&gt;, &lt;span style=&quot;color: #9e7bb0;&quot;&gt;referencedColumnName&lt;/span&gt; = &lt;span style=&quot;color: #6a8759;&quot;&gt;&quot;id&quot;&lt;/span&gt;)&lt;/div&gt;&lt;div&gt;  &lt;span style=&quot;color: #cc8242;&quot;&gt;private&lt;/span&gt; &lt;span style=&quot;color: #cc8242;&quot;&gt;Vin&lt;/span&gt; vin;&lt;/div&gt;&lt;/div&gt;&lt;/div&gt;" style="text;whiteSpace=wrap;html=1;fontSize=10;fillColor=none;strokeColor=none;" parent="1" vertex="1">
                    <mxGeometry x="-582" y="-612" width="378" height="78" as="geometry"/>
                </mxCell>
                <mxCell id="220" value="&lt;div style=&quot;color: rgb(204, 204, 204); background-color: rgb(36, 36, 36); font-family: &amp;quot;Anonymous Pro&amp;quot;, &amp;quot;Fira Code&amp;quot;, &amp;quot;Cascadia Code&amp;quot;, Consolas, &amp;quot;Courier New&amp;quot;, monospace, &amp;quot;Droid Sans Mono&amp;quot;, &amp;quot;monospace&amp;quot;, monospace; font-weight: bold; line-height: 22px;&quot;&gt;&lt;div style=&quot;font-size: 12px;&quot;&gt;&lt;div style=&quot;line-height: 22px;&quot;&gt;&lt;div&gt; @&lt;span style=&quot;color: #cc8242;&quot;&gt;OneToOne&lt;/span&gt;(&lt;span style=&quot;color: #9e7bb0;&quot;&gt;mappedBy&lt;/span&gt; = &lt;span style=&quot;color: #6a8759;&quot;&gt;&quot;vin&quot;&lt;/span&gt;)&lt;/div&gt;&lt;div&gt;    &lt;span style=&quot;color: #cc8242;&quot;&gt;private&lt;/span&gt; &lt;span style=&quot;color: #cc8242;&quot;&gt;Car&lt;/span&gt; car;&lt;/div&gt;&lt;/div&gt;&lt;/div&gt;&lt;/div&gt;" style="text;whiteSpace=wrap;html=1;fontSize=10;fillColor=none;strokeColor=none;" parent="1" vertex="1">
                    <mxGeometry x="-186" y="-612" width="184" height="52" as="geometry"/>
                </mxCell>
                <mxCell id="256" value="&lt;div style=&quot;color: rgb(204, 204, 204); background-color: rgb(36, 36, 36); font-family: &amp;quot;Anonymous Pro&amp;quot;, &amp;quot;Fira Code&amp;quot;, &amp;quot;Cascadia Code&amp;quot;, Consolas, &amp;quot;Courier New&amp;quot;, monospace, &amp;quot;Droid Sans Mono&amp;quot;, &amp;quot;monospace&amp;quot;, monospace; font-weight: bold; line-height: 22px;&quot;&gt;&lt;div&gt;&lt;span style=&quot;color: #cccccc;&quot;&gt;@&lt;/span&gt;&lt;span style=&quot;color: #cc8242;&quot;&gt;ManyToOne&lt;/span&gt;&lt;/div&gt;&lt;div&gt;&lt;span style=&quot;color: #cccccc;&quot;&gt;  @&lt;/span&gt;&lt;span style=&quot;color: #cc8242;&quot;&gt;JoinColumn&lt;/span&gt;&lt;span style=&quot;color: #cccccc;&quot;&gt;(&lt;/span&gt;&lt;span style=&quot;color: #9e7bb0;&quot;&gt;name&lt;/span&gt;&lt;span style=&quot;color: #cccccc;&quot;&gt; = &lt;/span&gt;&lt;span style=&quot;color: #6a8759;&quot;&gt;&quot;driver_id&quot;&lt;/span&gt;&lt;span style=&quot;color: #cccccc;&quot;&gt;, &lt;/span&gt;&lt;span style=&quot;color: #9e7bb0;&quot;&gt;referencedColumnName&lt;/span&gt;&lt;span style=&quot;color: #cccccc;&quot;&gt; = &lt;/span&gt;&lt;span style=&quot;color: #6a8759;&quot;&gt;&quot;id&quot;&lt;/span&gt;&lt;span style=&quot;color: #cccccc;&quot;&gt;)&lt;/span&gt;&lt;/div&gt;&lt;div&gt;&lt;span style=&quot;color: #cccccc;&quot;&gt;  &lt;/span&gt;&lt;span style=&quot;color: #cc8242;&quot;&gt;private&lt;/span&gt;&lt;span style=&quot;color: #cccccc;&quot;&gt; &lt;/span&gt;&lt;span style=&quot;color: #cc8242;&quot;&gt;Driver&lt;/span&gt;&lt;span style=&quot;color: #cccccc;&quot;&gt; driver;&lt;/span&gt;&lt;/div&gt;&lt;br&gt;&lt;/div&gt;" style="text;whiteSpace=wrap;html=1;fontSize=12;" parent="1" vertex="1">
                    <mxGeometry x="476" y="-700.6299999999999" width="396.05" height="94.63" as="geometry"/>
                </mxCell>
                <mxCell id="257" value="&lt;div style=&quot;color: rgb(204, 204, 204); background-color: rgb(36, 36, 36); font-family: &amp;quot;Anonymous Pro&amp;quot;, &amp;quot;Fira Code&amp;quot;, &amp;quot;Cascadia Code&amp;quot;, Consolas, &amp;quot;Courier New&amp;quot;, monospace, &amp;quot;Droid Sans Mono&amp;quot;, &amp;quot;monospace&amp;quot;, monospace; font-weight: bold; line-height: 22px;&quot;&gt;&lt;div&gt;&lt;span style=&quot;color: #cccccc;&quot;&gt;@&lt;/span&gt;&lt;span style=&quot;color: #cc8242;&quot;&gt;OneToMany&lt;/span&gt;&lt;span style=&quot;color: #cccccc;&quot;&gt;(&lt;/span&gt;&lt;span style=&quot;color: #9e7bb0;&quot;&gt;mappedBy&lt;/span&gt;&lt;span style=&quot;color: #cccccc;&quot;&gt; = &lt;/span&gt;&lt;span style=&quot;color: #6a8759;&quot;&gt;&quot;driver&quot;&lt;/span&gt;&lt;span style=&quot;color: #cccccc;&quot;&gt;, &lt;/span&gt;&lt;span style=&quot;color: #9e7bb0;&quot;&gt;cascade&lt;/span&gt;&lt;span style=&quot;color: #cccccc;&quot;&gt; = CascadeType.&lt;/span&gt;&lt;span style=&quot;color: #9e7bb0;&quot;&gt;ALL&lt;/span&gt;&lt;span style=&quot;color: #cccccc;&quot;&gt;)&lt;/span&gt;&lt;/div&gt;&lt;div&gt;&lt;span style=&quot;color: #cccccc;&quot;&gt;  &lt;/span&gt;&lt;span style=&quot;color: #cc8242;&quot;&gt;private&lt;/span&gt;&lt;span style=&quot;color: #cccccc;&quot;&gt; &lt;/span&gt;&lt;span style=&quot;color: #cc8242;&quot;&gt;List&lt;/span&gt;&lt;span style=&quot;color: #cccccc;&quot;&gt;&amp;lt;&lt;/span&gt;&lt;span style=&quot;color: #cc8242;&quot;&gt;Car&lt;/span&gt;&lt;span style=&quot;color: #cccccc;&quot;&gt;&amp;gt; cars = &lt;/span&gt;&lt;span style=&quot;color: #cc8242;&quot;&gt;new&lt;/span&gt;&lt;span style=&quot;color: #cccccc;&quot;&gt; &lt;/span&gt;&lt;span style=&quot;color: #cc8242;&quot;&gt;ArrayList&lt;/span&gt;&lt;span style=&quot;color: #cccccc;&quot;&gt;&amp;lt;&amp;gt;();&lt;/span&gt;&lt;/div&gt;&lt;/div&gt;" style="text;whiteSpace=wrap;html=1;fontSize=12;" parent="1" vertex="1">
                    <mxGeometry x="80" y="-636" width="384.74" height="55.53" as="geometry"/>
                </mxCell>
                <mxCell id="264" style="html=1;entryX=0;entryY=0.5;entryDx=0;entryDy=0;strokeColor=default;startArrow=classic;startFill=1;curved=1;labelBorderColor=default;exitX=1;exitY=0.5;exitDx=0;exitDy=0;" parent="1" source="229" target="228" edge="1">
                    <mxGeometry relative="1" as="geometry">
                        <mxPoint x="440" y="-369" as="targetPoint"/>
                        <mxPoint x="240" y="-279" as="sourcePoint"/>
                        <Array as="points">
                            <mxPoint x="318" y="-336"/>
                            <mxPoint x="413" y="-410"/>
                        </Array>
                    </mxGeometry>
                </mxCell>
                <mxCell id="265" value="bi-directional" style="edgeLabel;html=1;align=center;verticalAlign=middle;resizable=0;points=[];" parent="264" vertex="1" connectable="0">
                    <mxGeometry x="0.0976" relative="1" as="geometry">
                        <mxPoint as="offset"/>
                    </mxGeometry>
                </mxCell>
                <mxCell id="266" value="&lt;i&gt;One Driver has multiple Cars,&lt;br&gt;One Car&amp;nbsp; has one Driver&lt;/i&gt;" style="text;html=1;strokeColor=none;fillColor=none;align=center;verticalAlign=middle;whiteSpace=wrap;rounded=0;fontFamily=Tahoma;" parent="1" vertex="1">
                    <mxGeometry x="291" y="-531" width="151" height="70" as="geometry"/>
                </mxCell>
                <mxCell id="267" value="Driver" style="swimlane;fontStyle=1;childLayout=stackLayout;horizontal=1;startSize=30;horizontalStack=0;resizeParent=1;resizeParentMax=0;resizeLast=0;collapsible=1;marginBottom=0;whiteSpace=wrap;html=1;" parent="1" vertex="1">
                    <mxGeometry x="905" y="-568" width="162" height="210" as="geometry"/>
                </mxCell>
                <mxCell id="268" value="&lt;span&gt;id :&lt;/span&gt; Long autogenerated" style="text;strokeColor=none;fillColor=none;align=left;verticalAlign=middle;spacingLeft=4;spacingRight=4;overflow=hidden;points=[[0,0.5],[1,0.5]];portConstraint=eastwest;rotatable=0;whiteSpace=wrap;html=1;fontStyle=1" parent="267" vertex="1">
                    <mxGeometry y="30" width="162" height="30" as="geometry"/>
                </mxCell>
                <mxCell id="269" value="&lt;span&gt;name :&lt;/span&gt; TEXT" style="text;strokeColor=none;fillColor=none;align=left;verticalAlign=middle;spacingLeft=4;spacingRight=4;overflow=hidden;points=[[0,0.5],[1,0.5]];portConstraint=eastwest;rotatable=0;whiteSpace=wrap;html=1;fontStyle=1" parent="267" vertex="1">
                    <mxGeometry y="60" width="162" height="30" as="geometry"/>
                </mxCell>
                <mxCell id="270" value="&lt;span&gt;age :&lt;/span&gt; INT" style="text;strokeColor=none;fillColor=none;align=left;verticalAlign=middle;spacingLeft=4;spacingRight=4;overflow=hidden;points=[[0,0.5],[1,0.5]];portConstraint=eastwest;rotatable=0;whiteSpace=wrap;html=1;fontStyle=1" parent="267" vertex="1">
                    <mxGeometry y="90" width="162" height="30" as="geometry"/>
                </mxCell>
                <mxCell id="271" value="&lt;span&gt;drivingExperience :&lt;/span&gt; INT" style="text;strokeColor=none;fillColor=none;align=left;verticalAlign=middle;spacingLeft=4;spacingRight=4;overflow=hidden;points=[[0,0.5],[1,0.5]];portConstraint=eastwest;rotatable=0;whiteSpace=wrap;html=1;fontStyle=1" parent="267" vertex="1">
                    <mxGeometry y="120" width="162" height="30" as="geometry"/>
                </mxCell>
                <mxCell id="272" value="List&amp;lt;Car&amp;gt; cars" style="text;strokeColor=none;fillColor=none;align=left;verticalAlign=middle;spacingLeft=4;spacingRight=4;overflow=hidden;points=[[0,0.5],[1,0.5]];portConstraint=eastwest;rotatable=0;whiteSpace=wrap;html=1;fontStyle=1" parent="267" vertex="1">
                    <mxGeometry y="150" width="162" height="30" as="geometry"/>
                </mxCell>
                <mxCell id="287" value="DrivingCategories&amp;nbsp;" style="text;strokeColor=none;fillColor=none;align=left;verticalAlign=middle;spacingLeft=4;spacingRight=4;overflow=hidden;points=[[0,0.5],[1,0.5]];portConstraint=eastwest;rotatable=0;whiteSpace=wrap;html=1;fontStyle=1" parent="267" vertex="1">
                    <mxGeometry y="180" width="162" height="30" as="geometry"/>
                </mxCell>
                <mxCell id="273" value="Driver Categories" style="swimlane;fontStyle=1;childLayout=stackLayout;horizontal=1;startSize=30;horizontalStack=0;resizeParent=1;resizeParentMax=0;resizeLast=0;collapsible=1;marginBottom=0;whiteSpace=wrap;html=1;" parent="1" vertex="1">
                    <mxGeometry x="1530" y="-668.23" width="162" height="120" as="geometry"/>
                </mxCell>
                <mxCell id="274" value="&lt;span&gt;id :&lt;/span&gt; Long autogenerated" style="text;strokeColor=none;fillColor=none;align=left;verticalAlign=middle;spacingLeft=4;spacingRight=4;overflow=hidden;points=[[0,0.5],[1,0.5]];portConstraint=eastwest;rotatable=0;whiteSpace=wrap;html=1;fontStyle=1" parent="273" vertex="1">
                    <mxGeometry y="30" width="162" height="30" as="geometry"/>
                </mxCell>
                <mxCell id="275" value="DriverCategory" style="text;strokeColor=none;fillColor=none;align=left;verticalAlign=middle;spacingLeft=4;spacingRight=4;overflow=hidden;points=[[0,0.5],[1,0.5]];portConstraint=eastwest;rotatable=0;whiteSpace=wrap;html=1;fontStyle=1" parent="273" vertex="1">
                    <mxGeometry y="60" width="162" height="30" as="geometry"/>
                </mxCell>
                <mxCell id="276" value="Set&amp;lt;Driver&amp;gt; drivers" style="text;strokeColor=none;fillColor=none;align=left;verticalAlign=middle;spacingLeft=4;spacingRight=4;overflow=hidden;points=[[0,0.5],[1,0.5]];portConstraint=eastwest;rotatable=0;whiteSpace=wrap;html=1;fontStyle=1" parent="273" vertex="1">
                    <mxGeometry y="90" width="162" height="30" as="geometry"/>
                </mxCell>
                <mxCell id="279" value="&lt;div style=&quot;color: rgb(204, 204, 204); background-color: rgb(36, 36, 36); font-family: &amp;quot;Anonymous Pro&amp;quot;, &amp;quot;Fira Code&amp;quot;, &amp;quot;Cascadia Code&amp;quot;, Consolas, &amp;quot;Courier New&amp;quot;, monospace, &amp;quot;Droid Sans Mono&amp;quot;, &amp;quot;monospace&amp;quot;, monospace; font-weight: bold; line-height: 22px;&quot;&gt;&lt;div&gt;&lt;span style=&quot;color: #cccccc;&quot;&gt;@&lt;/span&gt;&lt;span style=&quot;color: #cc8242;&quot;&gt;ManyToMany&lt;/span&gt;&lt;span style=&quot;color: #cccccc;&quot;&gt;(&lt;/span&gt;&lt;span style=&quot;color: #9e7bb0;&quot;&gt;mappedBy&lt;/span&gt;&lt;span style=&quot;color: #cccccc;&quot;&gt; = &lt;/span&gt;&lt;span style=&quot;color: #6a8759;&quot;&gt;&quot;categories&quot;&lt;/span&gt;&lt;span style=&quot;color: #cccccc;&quot;&gt;)&lt;/span&gt;&lt;/div&gt;&lt;div&gt;&lt;span style=&quot;color: #cccccc;&quot;&gt;  &lt;/span&gt;&lt;span style=&quot;color: #cc8242;&quot;&gt;private&lt;/span&gt;&lt;span style=&quot;color: #cccccc;&quot;&gt; &lt;/span&gt;&lt;span style=&quot;color: #cc8242;&quot;&gt;Set&lt;/span&gt;&lt;span style=&quot;color: #cccccc;&quot;&gt;&amp;lt;&lt;/span&gt;&lt;span style=&quot;color: #cc8242;&quot;&gt;Driver&lt;/span&gt;&lt;span style=&quot;color: #cccccc;&quot;&gt;&amp;gt; drivers = &lt;/span&gt;&lt;span style=&quot;color: #cc8242;&quot;&gt;new&lt;/span&gt;&lt;span style=&quot;color: #cccccc;&quot;&gt; &lt;/span&gt;&lt;span style=&quot;color: #cc8242;&quot;&gt;HashSet&lt;/span&gt;&lt;span style=&quot;color: #cccccc;&quot;&gt;&amp;lt;&amp;gt;();&lt;/span&gt;&lt;/div&gt;&lt;/div&gt;" style="text;whiteSpace=wrap;html=1;" parent="1" vertex="1">
                    <mxGeometry x="1530" y="-735" width="309.43" height="53.29" as="geometry"/>
                </mxCell>
                <mxCell id="280" value="&lt;div style=&quot;color: rgb(204, 204, 204); background-color: rgb(36, 36, 36); font-family: &amp;quot;Anonymous Pro&amp;quot;, &amp;quot;Fira Code&amp;quot;, &amp;quot;Cascadia Code&amp;quot;, Consolas, &amp;quot;Courier New&amp;quot;, monospace, &amp;quot;Droid Sans Mono&amp;quot;, &amp;quot;monospace&amp;quot;, monospace; font-weight: bold; line-height: 22px;&quot;&gt;&lt;div&gt;&lt;span style=&quot;color: #cccccc;&quot;&gt;@&lt;/span&gt;&lt;span style=&quot;color: #cc8242;&quot;&gt;ManyToMany&lt;/span&gt;&lt;/div&gt;&lt;div&gt;&lt;span style=&quot;color: #cccccc;&quot;&gt;  @&lt;/span&gt;&lt;span style=&quot;color: #cc8242;&quot;&gt;JoinTable&lt;/span&gt;&lt;span style=&quot;color: #cccccc;&quot;&gt;(&lt;/span&gt;&lt;span style=&quot;color: #9e7bb0;&quot;&gt;name&lt;/span&gt;&lt;span style=&quot;color: #cccccc;&quot;&gt; = &lt;/span&gt;&lt;span style=&quot;color: #6a8759;&quot;&gt;&quot;driver_driver_category&quot;&lt;/span&gt;&lt;span style=&quot;color: #cccccc;&quot;&gt;, &lt;/span&gt;&lt;span style=&quot;color: #9e7bb0;&quot;&gt;joinColumns&lt;/span&gt;&lt;span style=&quot;color: #cccccc;&quot;&gt; = @&lt;/span&gt;&lt;span style=&quot;color: #cc8242;&quot;&gt;JoinColumn&lt;/span&gt;&lt;span style=&quot;color: #cccccc;&quot;&gt;(&lt;/span&gt;&lt;span style=&quot;color: #9e7bb0;&quot;&gt;name&lt;/span&gt;&lt;span style=&quot;color: #cccccc;&quot;&gt; = &lt;/span&gt;&lt;span style=&quot;color: #6a8759;&quot;&gt;&quot;driver_id&quot;&lt;/span&gt;&lt;span style=&quot;color: #cccccc;&quot;&gt;), &lt;/span&gt;&lt;span style=&quot;color: #9e7bb0;&quot;&gt;inverseJoinColumns&lt;/span&gt;&lt;span style=&quot;color: #cccccc;&quot;&gt; = @&lt;/span&gt;&lt;span style=&quot;color: #cc8242;&quot;&gt;JoinColumn&lt;/span&gt;&lt;span style=&quot;color: #cccccc;&quot;&gt;(&lt;/span&gt;&lt;span style=&quot;color: #9e7bb0;&quot;&gt;name&lt;/span&gt;&lt;span style=&quot;color: #cccccc;&quot;&gt; = &lt;/span&gt;&lt;span style=&quot;color: #6a8759;&quot;&gt;&quot;driver_category_id&quot;&lt;/span&gt;&lt;span style=&quot;color: #cccccc;&quot;&gt;))&lt;/span&gt;&lt;/div&gt;&lt;div&gt;&lt;span style=&quot;color: #cccccc;&quot;&gt;  &lt;/span&gt;&lt;span style=&quot;color: #cc8242;&quot;&gt;private&lt;/span&gt;&lt;span style=&quot;color: #cccccc;&quot;&gt; &lt;/span&gt;&lt;span style=&quot;color: #cc8242;&quot;&gt;Set&lt;/span&gt;&lt;span style=&quot;color: #cccccc;&quot;&gt;&amp;lt;&lt;/span&gt;&lt;span style=&quot;color: #cc8242;&quot;&gt;DrivingCategories&lt;/span&gt;&lt;span style=&quot;color: #cccccc;&quot;&gt;&amp;gt; categories = &lt;/span&gt;&lt;span style=&quot;color: #cc8242;&quot;&gt;new&lt;/span&gt;&lt;span style=&quot;color: #cccccc;&quot;&gt; &lt;/span&gt;&lt;span style=&quot;color: #cc8242;&quot;&gt;HashSet&lt;/span&gt;&lt;span style=&quot;color: #cccccc;&quot;&gt;&amp;lt;&amp;gt;();&lt;/span&gt;&lt;/div&gt;&lt;/div&gt;" style="text;whiteSpace=wrap;html=1;fontSize=12;" parent="1" vertex="1">
                    <mxGeometry x="905" y="-687.12" width="550" height="95.52" as="geometry"/>
                </mxCell>
                <mxCell id="281" style="html=1;entryX=0;entryY=0.5;entryDx=0;entryDy=0;strokeColor=default;startArrow=classic;startFill=1;curved=1;labelBorderColor=default;exitX=1;exitY=0.5;exitDx=0;exitDy=0;" parent="1" source="287" target="276" edge="1">
                    <mxGeometry relative="1" as="geometry">
                        <mxPoint x="1387" y="-358" as="targetPoint"/>
                        <mxPoint x="1153" y="-412" as="sourcePoint"/>
                        <Array as="points">
                            <mxPoint x="1125" y="-368"/>
                            <mxPoint x="1206" y="-532"/>
                            <mxPoint x="1436" y="-420"/>
                        </Array>
                    </mxGeometry>
                </mxCell>
                <mxCell id="282" value="bi-directional" style="edgeLabel;html=1;align=center;verticalAlign=middle;resizable=0;points=[];" parent="281" vertex="1" connectable="0">
                    <mxGeometry x="0.0976" relative="1" as="geometry">
                        <mxPoint as="offset"/>
                    </mxGeometry>
                </mxCell>
                <mxCell id="283" value="&lt;i&gt;Many Drivers have multiple Driving categories,&lt;br&gt;Many Driver categories have many Drivers&lt;/i&gt;" style="text;html=1;strokeColor=none;fillColor=none;align=center;verticalAlign=middle;whiteSpace=wrap;rounded=0;fontFamily=Tahoma;" parent="1" vertex="1">
                    <mxGeometry x="1164" y="-574" width="266" height="70" as="geometry"/>
                </mxCell>
                <mxCell id="285" value="ManyToMany" style="text;whiteSpace=wrap;fontSize=20;" parent="1" vertex="1">
                    <mxGeometry x="1122" y="-735" width="140" height="30" as="geometry"/>
                </mxCell>
            </root>
        </mxGraphModel>
    </diagram>
</mxfile>